<?xml version="1.0" encoding="iso-8859-1"?>
<!-- Generator: Adobe Illustrator 18.0.0, SVG Export Plug-In . SVG Version: 6.00 Build 0)  -->
<!DOCTYPE svg PUBLIC "-//W3C//DTD SVG 1.1//EN" "http://www.w3.org/Graphics/SVG/1.1/DTD/svg11.dtd">
<svg xmlns="http://www.w3.org/2000/svg" xmlns:xlink="http://www.w3.org/1999/xlink" version="1.1" id="Capa_1" x="0px" y="0px" viewBox="0 0 475 475" style="enable-background:new 0 0 475 475;" xml:space="preserve" width="512px" height="512px">
<g>
	<path d="M373.565,153.909h-16.229V15c0-8.284-6.716-15-15-15H199.58c-8.284,0-15,6.716-15,15v36.303h-42.995   c-8.284,0-15,6.716-15,15v87.606h-25.15c-8.284,0-15,6.716-15,15v227.52c0,5.825,3.373,11.124,8.65,13.59L231.15,473.59   c2.013,0.94,4.181,1.41,6.35,1.41s4.337-0.47,6.35-1.41l136.065-63.571c5.277-2.466,8.65-7.765,8.65-13.59v-227.52   C388.565,160.625,381.85,153.909,373.565,153.909z M299.342,153.909V66.303c0-8.284-6.716-15-15-15h-38.815   c4.918-6.211,8.611-13.431,10.697-21.303h29.47c5.374,20.275,21.368,36.27,41.644,41.644v82.266H299.342z M269.342,101.867   c-9.24-3.912-16.652-11.324-20.564-20.564h20.564V101.867z M327.337,50.563c-9.24-3.912-16.652-11.323-20.563-20.563h20.563V50.563   z M235.144,30c-3.912,9.24-11.324,16.651-20.564,20.563V30H235.144z M177.149,81.303c-3.912,9.24-11.324,16.652-20.564,20.564   V81.303H177.149z M156.585,122.947c20.276-5.374,36.27-21.368,41.644-41.645h29.47c5.374,20.276,21.368,36.271,41.644,41.645   v30.962H156.585V122.947z M358.565,386.881L237.5,443.443l-121.065-56.563V183.909h242.131V386.881z" fill="#ff8f66"/>
	<path d="M135.122,381.351l25.368,11.852c1.369,0.64,2.809,0.942,4.226,0.942c3.764,0,7.369-2.135,9.066-5.77   c2.338-5.004,0.177-10.955-4.827-13.292l-19.601-9.157v-21.635c0-5.522-4.478-10-10-10s-10,4.478-10,10v28   C129.354,376.175,131.604,379.707,135.122,381.351z" fill="#ff8f66"/>
	<path d="M139.354,317.804c5.522,0,10-4.478,10-10v-36.487c0-5.522-4.478-10-10-10s-10,4.478-10,10v36.487   C129.354,313.326,133.832,317.804,139.354,317.804z" fill="#ff8f66"/>
	<path d="M139.354,244.829c5.522,0,10-4.478,10-10v-18h18c5.522,0,10-4.478,10-10s-4.478-10-10-10h-28c-5.522,0-10,4.478-10,10v28   C129.354,240.352,133.832,244.829,139.354,244.829z" fill="#ff8f66"/>
	<path d="M214.118,216.829h46.764c5.522,0,10-4.478,10-10s-4.478-10-10-10h-46.764c-5.522,0-10,4.478-10,10   S208.596,216.829,214.118,216.829z" fill="#ff8f66"/>
	<path d="M307.646,216.829h18v18c0,5.522,4.478,10,10,10s10-4.478,10-10v-28c0-5.522-4.478-10-10-10h-28c-5.522,0-10,4.478-10,10   S302.123,216.829,307.646,216.829z" fill="#ff8f66"/>
	<path d="M335.646,261.316c-5.522,0-10,4.478-10,10v36.487c0,5.522,4.478,10,10,10s10-4.478,10-10v-36.487   C345.646,265.794,341.168,261.316,335.646,261.316z" fill="#ff8f66"/>
	<path d="M335.646,334.291c-5.522,0-10,4.478-10,10v21.635l-19.601,9.157c-5.004,2.337-7.165,8.288-4.827,13.292   c1.697,3.635,5.303,5.77,9.066,5.77c1.417,0,2.857-0.303,4.226-0.942l25.368-11.852c3.519-1.644,5.768-5.176,5.768-9.06v-28   C345.646,338.769,341.168,334.291,335.646,334.291z" fill="#ff8f66"/>
	<path d="M207.899,415.353l25.368,11.852c1.341,0.627,2.787,0.94,4.232,0.94s2.892-0.313,4.232-0.94l25.368-11.852   c5.004-2.337,7.165-8.288,4.827-13.292c-2.336-5.003-8.289-7.165-13.292-4.827l-21.136,9.874l-21.136-9.874   c-5.006-2.34-10.956-0.176-13.292,4.827C200.734,407.064,202.896,413.016,207.899,415.353z" fill="#ff8f66"/>
</g>
<g>
</g>
<g>
</g>
<g>
</g>
<g>
</g>
<g>
</g>
<g>
</g>
<g>
</g>
<g>
</g>
<g>
</g>
<g>
</g>
<g>
</g>
<g>
</g>
<g>
</g>
<g>
</g>
<g>
</g>
</svg>
