<?xml version="1.0" encoding="utf-8"?>
<!-- Generator: Adobe Illustrator 22.0.0, SVG Export Plug-In . SVG Version: 6.00 Build 0)  -->
<svg version="1.1" id="Layer_1" xmlns="http://www.w3.org/2000/svg" xmlns:xlink="http://www.w3.org/1999/xlink" x="0px" y="0px"
	 viewBox="0 0 200 100" style="enable-background:new 0 0 200 100;" xml:space="preserve">
<style type="text/css">
	.st0{fill:none;stroke:#FF8888;stroke-width:5;stroke-linecap:round;stroke-miterlimit:10;}
	.st1{fill:#FF8888;}
	.st2{fill:none;}
</style>
<g>
	<line class="st0" x1="53.7" y1="22.9" x2="10.7" y2="65.9"/>
	<line class="st0" x1="60.3" y1="38.7" x2="25.1" y2="73.8"/>
	<line class="st0" x1="68.6" y1="53.5" x2="41.3" y2="80.8"/>
	<path class="st1" d="M33.8,24.4c-5.9-5.9-15.6-5.9-21.5,0l0,0c-5.9,5.9-5.9,15.6,0,21.5l2.3,2.3L36,26.7L33.8,24.4z M21.4,33.6
		l-0.9,3.4l-1.3-3.3l-3.5,0.2l2.7-2.2l-1.3-3.3l2.9,1.9l2.7-2.2L22,31.5l2.9,1.9L21.4,33.6z"/>
</g>
<path class="st2" d="M141.6,37.8c-2.6,0-4.7,1-6.4,2.9c-1.7,1.9-2.6,4.2-2.6,6.8h18.1c-0.1-2.6-1-4.9-2.7-6.8
	C146.2,38.7,144.1,37.8,141.6,37.8z"/>
<g>
	<path class="st1" d="M114.3,51.6c1.3,1.4,2.5,2.8,3.7,4.1c1.2,1.3,2.1,2.2,2.7,2.7c0.8,0.9,1.3,2,1.3,3.4c0,1.4-0.4,2.5-1.3,3.5
		c-0.9,1-1.9,1.4-3.2,1.4c-1.2,0-2.3-0.5-3.2-1.5c-1.1-1.1-2.9-3-5.4-5.6c-2.5-2.7-4.7-5.1-6.8-7.3h-7.3v14.4h-9.1V28.1h24.9
		c3.1,0,5.7,1.2,8,3.6c2.3,2.4,3.4,5.2,3.4,8.5c0,2.7-0.7,5.1-2.2,7.1C118.4,49.4,116.5,50.8,114.3,51.6z M110.7,37.8H94.9v4.8h15.8
		c0.5,0,1-0.2,1.5-0.6c0.5-0.4,0.7-1,0.7-1.7c0-0.6-0.2-1.2-0.7-1.7C111.7,38,111.2,37.8,110.7,37.8z"/>
	<path class="st1" d="M179.2,57.1h9.1v-29h8.9v38.6h-18c-5,0-9.3-1.9-12.8-5.6s-5.3-8.3-5.3-13.7V28.1h9.1v19.3c0,2.7,0.9,5,2.6,6.9
		S176.7,57.1,179.2,57.1z"/>
	<path class="st1" d="M154.3,33.8c-3.5-3.8-7.8-5.7-12.7-5.7c-5,0-9.3,1.9-12.8,5.7c-3.5,3.8-5.3,8.3-5.3,13.6v19.3h9.1v-9.7h18.1
		v9.7h8.9V47.4C159.6,42.2,157.8,37.6,154.3,33.8z M144,55.1l-2.2-1.4l-2,1.6l0.6-2.5l-2.2-1.4l2.5-0.2l0.6-2.5l0.9,2.4l2.5-0.2
		l-2,1.6L144,55.1z M132.6,47.4c0-2.6,0.9-4.9,2.6-6.8c1.7-1.9,3.9-2.9,6.4-2.9c2.5,0,4.6,1,6.3,2.9c1.7,1.9,2.7,4.2,2.7,6.8H132.6z
		"/>
</g>
</svg>
