<svg xmlns="http://www.w3.org/2000/svg" width="800" height="470" viewBox="0 0 800 470" preserveAspectRatio="xMidYMid meet"><defs><clipPath id="animationMask_hdOlzNtAso"><rect width="800" height="470" x="0" y="0"></rect></clipPath><clipPath id="fkeABNb6Fs"><path fill="#ffffff" clip-rule="nonzero" d=" M36.058,-59.972 C36.058,-59.972 -80.83,-37.521 -80.83,-37.521 C-80.83,-37.521 -90.454,29.67 -90.454,29.67 C-90.454,29.67 -100.34100000000001,164.173 -23.576,89.218 C45.207,22.057000000000002 36.058,-59.972 36.058,-59.972"></path></clipPath><clipPath id="soKJZS0m56"><path fill="#ffffff" clip-rule="nonzero" d=" M444.529,371.25 C415.13599999999997,371.25 391.309,395.078 391.309,424.471 C391.309,453.86400000000003 415.13599999999997,477.692 444.529,477.692 C473.922,477.692 497.75,453.86400000000003 497.75,424.471 C497.75,395.078 473.922,371.25 444.529,371.25"></path><path fill="#ffffff" clip-rule="nonzero" d=" M185.34,138.5 C185.34,138.5 135.83,138.5 135.83,138.5 C135.83,138.5 132.44,138.5 132.44,138.5 C132.44,138.5 129.049,138.5 129.049,138.5 C129.049,138.5 92.5,138.5 92.5,138.5 C92.5,138.5 140.716,194.738 140.716,194.738 C140.716,194.738 168.25,237.238 168.25,237.238 C168.25,237.238 185.306,237.238 185.306,237.238 C185.306,237.238 185.34,138.5 185.34,138.5"></path></clipPath><clipPath id="TTFhx5nzZx"><path fill="#ffffff" clip-rule="nonzero" d=" M273.862,271.654 C273.862,271.654 272.862,428.154 272.862,428.154 C272.862,428.154 511.862,428.154 511.862,428.154 C511.862,428.154 491.199,252.116 491.199,252.116 C491.199,252.116 273.862,271.654 273.862,271.654"></path></clipPath><mask id="Nve1evbTcB"><path fill="#ffffff" clip-rule="nonzero" d=" M454.888,446.551 C454.888,446.551 309.112,446.551 309.112,446.551 C309.112,446.551 309.112,296.449 309.112,296.449 C309.112,296.449 454.888,296.449 454.888,296.449 C454.888,296.449 454.888,446.551 454.888,446.551"></path></mask><clipPath id="V9yKSmqRe7"><path fill="#ffffff" clip-rule="nonzero" d=" M238.561,301.654 C238.561,301.654 286.224,416.154 286.224,416.154 C286.224,416.154 490.224,416.154 490.224,416.154 C490.224,416.154 497.898,301.616 497.898,301.616 C497.898,301.616 238.561,301.654 238.561,301.654"></path></clipPath><mask id="3OV8gdtvtS"><path fill="#ffffff" clip-rule="nonzero" d=" M454.888,310.521 C454.888,310.521 309.112,310.521 309.112,310.521 C309.112,310.521 309.112,301.14 309.112,301.14 C309.112,301.14 454.888,301.14 454.888,301.14 C454.888,301.14 454.888,310.521 454.888,310.521"></path><path fill="#ffffff" clip-rule="nonzero" d=" M454.888,329.284 C454.888,329.284 309.112,329.284 309.112,329.284 C309.112,329.284 309.112,319.903 309.112,319.903 C309.112,319.903 454.888,319.903 454.888,319.903 C454.888,319.903 454.888,329.284 454.888,329.284"></path><path fill="#ffffff" clip-rule="nonzero" d=" M454.888,348.047 C454.888,348.047 309.112,348.047 309.112,348.047 C309.112,348.047 309.112,338.666 309.112,338.666 C309.112,338.666 454.888,338.666 454.888,338.666 C454.888,338.666 454.888,348.047 454.888,348.047"></path><path fill="#ffffff" clip-rule="nonzero" d=" M454.888,366.809 C454.888,366.809 309.112,366.809 309.112,366.809 C309.112,366.809 309.112,357.428 309.112,357.428 C309.112,357.428 454.888,357.428 454.888,357.428 C454.888,357.428 454.888,366.809 454.888,366.809"></path><path fill="#ffffff" clip-rule="nonzero" d=" M454.888,385.572 C454.888,385.572 309.112,385.572 309.112,385.572 C309.112,385.572 309.112,376.191 309.112,376.191 C309.112,376.191 454.888,376.191 454.888,376.191 C454.888,376.191 454.888,385.572 454.888,385.572"></path><path fill="#ffffff" clip-rule="nonzero" d=" M454.888,404.335 C454.888,404.335 309.112,404.335 309.112,404.335 C309.112,404.335 309.112,394.953 309.112,394.953 C309.112,394.953 454.888,394.953 454.888,394.953 C454.888,394.953 454.888,404.335 454.888,404.335"></path><path fill="#ffffff" clip-rule="nonzero" d=" M454.888,423.097 C454.888,423.097 309.112,423.097 309.112,423.097 C309.112,423.097 309.112,413.716 309.112,413.716 C309.112,413.716 454.888,413.716 454.888,413.716 C454.888,413.716 454.888,423.097 454.888,423.097"></path><path fill="#ffffff" clip-rule="nonzero" d=" M454.888,441.86 C454.888,441.86 309.112,441.86 309.112,441.86 C309.112,441.86 309.112,432.479 309.112,432.479 C309.112,432.479 454.888,432.479 454.888,432.479 C454.888,432.479 454.888,441.86 454.888,441.86"></path></mask><clipPath id="YYGlXuztmM"><path fill="#ffffff" clip-rule="nonzero" d=" M66.362,170.654 C66.362,170.654 116.362,285.154 116.362,285.154 C116.362,285.154 351.862,285.154 351.862,285.154 C351.862,285.154 360.199,170.616 360.199,170.616 C360.199,170.616 66.362,170.654 66.362,170.654"></path></clipPath></defs><g clip-path="url(#animationMask_hdOlzNtAso)"><rect width="800" height="470" fill="#ffffff" transform="matrix(1,0,0,1,0,0)" opacity="1"></rect><g opacity="1" style="-webkit-user-select: none;"><g transform="matrix(1.07,0,0,1.07,279.28798,69.70981)" style="-webkit-user-select: none;"><path d=" M0.6029999999999944,32.58199999999998 C0.6029999999999944,32.58199999999998 0.6029999999999944,91.34899999999999 0.6029999999999944,91.34899999999999 C0.6029999999999944,109.60099999999998 0.25,127.74999999999999 3.3220000000000027,145.814 C6.832999999999998,166.45899999999997 13.861000000000004,186.34799999999998 23.531999999999996,204.897 C43.334999999999994,242.87399999999997 74.559,273.53099999999995 113.634,291.256 C152.712,273.53099999999995 183.942,242.87399999999997 203.745,204.897 C213.416,186.34799999999998 220.50400000000002,166.45899999999997 224.015,145.814 C227.088,127.74999999999999 226.82,109.60099999999998 226.82,91.34899999999999 C226.82,91.34899999999999 226.82,32.58199999999998 226.82,32.58199999999998 C226.82,32.58199999999998 113.711,0.25 113.711,0.25 C113.711,0.25 0.6029999999999944,32.58199999999998 0.6029999999999944,32.58199999999998z" style="fill: rgb(66, 133, 244); fill-opacity: 1;"></path><path d=" M85.166,115.612 C85.166,115.612 142.75,115.612 142.75,115.612 C153.97899999999998,115.612 162.905,106.68599999999999 162.905,95.458 C162.905,84.229 153.97899999999998,75.303 142.75,75.303 C142.75,75.303 85.166,75.303 85.166,75.303 C73.937,75.303 65.012,84.229 65.012,95.458 C65.012,106.68599999999999 73.937,115.612 85.166,115.612z" style="fill: rgb(33, 67, 128); fill-opacity: 0.5;"></path><path d=" M85.166,201.112 C85.166,201.112 142.75,201.112 142.75,201.112 C153.97899999999998,201.112 162.905,192.186 162.905,180.958 C162.905,169.72899999999998 153.97899999999998,160.803 142.75,160.803 C142.75,160.803 85.166,160.803 85.166,160.803 C73.937,160.803 65.012,169.72899999999998 65.012,180.958 C65.012,192.186 73.937,201.112 85.166,201.112z" style="fill: rgb(33, 67, 128); fill-opacity: 0.5;"></path><path d=" M82.412,152.041 C74.266,152.041 66.912,155.398 61.63100000000001,160.794 C56.49700000000001,166.039 53.322,173.211 53.322,181.131 C53.322,189.051 56.49700000000001,196.222 61.63100000000001,201.468 C66.912,206.863 74.266,210.221 82.412,210.221 C98.47800000000001,210.221 111.50200000000001,197.197 111.50200000000001,181.131 C111.50200000000001,165.065 98.47800000000001,152.041 82.412,152.041z" style="fill: rgb(255, 255, 255); fill-opacity: 1;"></path><path d=" M142.937,66.368 C134.791,66.368 127.43700000000001,69.725 122.156,75.121 C117.02200000000002,80.367 113.84700000000001,87.538 113.84700000000001,95.458 C113.84700000000001,103.378 117.02200000000002,110.54899999999999 122.156,115.795 C127.43700000000001,121.19 134.791,124.548 142.937,124.548 C159.00300000000001,124.548 172.02700000000002,111.524 172.02700000000002,95.458 C172.02700000000002,79.392 159.00300000000001,66.368 142.937,66.368z" style="fill: rgb(255, 255, 255); fill-opacity: 1;"></path><path d=" M234.618,316.931 C234.618,319.594 185.965,321.753 125.948,321.753 C65.93099999999998,321.753 17.27799999999999,319.594 17.27799999999999,316.931 C17.27799999999999,314.268 65.93099999999998,312.109 125.948,312.109 C185.965,312.109 234.618,314.268 234.618,316.931z" style="fill: rgb(238, 238, 238); fill-opacity: 1;"></path></g><g clip-path="url(#fkeABNb6Fs)" transform="matrix(1.0400234720007444,0.0899112048345868,-0.0899112048345868,1.0400234720007444,478.1025400000001,262.60192)" opacity="0.15" style="-webkit-user-select: none;"><g style="-webkit-user-select: none;"><path d=" M34.873,-3 C65.43335869999999,-3 90.246,21.812641300000003 90.246,52.373 C90.246,82.93335869999999 65.43335869999999,107.746 34.873,107.746 C4.312641300000003,107.746 -20.5,82.93335869999999 -20.5,52.373 C-20.5,21.812641300000003 4.312641300000003,-3 34.873,-3z M34.873,-3 C65.43335869999999,-3 90.246,21.812641300000003 90.246,52.373 C90.246,82.93335869999999 65.43335869999999,107.746 34.873,107.746 C4.312641300000003,107.746 -20.5,82.93335869999999 -20.5,52.373 C-20.5,21.812641300000003 4.312641300000003,-3 34.873,-3z" style="fill: rgb(0, 0, 0); fill-opacity: 0.15;"></path><g style="stroke-linecap: butt; stroke-linejoin: miter; fill-opacity: 0; stroke-miterlimit: 4; stroke: rgb(255, 255, 255); stroke-opacity: 0.15; stroke-width: 0;"><path d=" M34.873,-3 C65.43335869999999,-3 90.246,21.812641300000003 90.246,52.373 C90.246,82.93335869999999 65.43335869999999,107.746 34.873,107.746 C4.312641300000003,107.746 -20.5,82.93335869999999 -20.5,52.373 C-20.5,21.812641300000003 4.312641300000003,-3 34.873,-3z"></path><path d=" M34.873,-3 C65.43335869999999,-3 90.246,21.812641300000003 90.246,52.373 C90.246,82.93335869999999 65.43335869999999,107.746 34.873,107.746 C4.312641300000003,107.746 -20.5,82.93335869999999 -20.5,52.373 C-20.5,21.812641300000003 4.312641300000003,-3 34.873,-3z"></path></g></g></g><g clip-path="url(#soKJZS0m56)" transform="matrix(1.07,0,0,1.07,44.84563000000003,-141.06842)" opacity="1"><g clip-path="url(#TTFhx5nzZx)" transform="matrix(1,0,0,1,64.5,54)" opacity="1"><g mask="url(#Nve1evbTcB)" transform="matrix(1,0,0,1,0,0)" opacity="1"><rect width="764" height="743" fill="#f9bb2d"></rect></g></g><g clip-path="url(#V9yKSmqRe7)" transform="matrix(1,0,0,1,64.5,66)" opacity="1"><g mask="url(#3OV8gdtvtS)" transform="matrix(1,0,0,1,0,0)" opacity="1"><rect width="764" height="743" fill="#f2a600"></rect></g></g><g clip-path="url(#YYGlXuztmM)" transform="matrix(1,0,0,1,219.637,196.84599999999998)" opacity="1" style="-webkit-user-select: none;"><g style="-webkit-user-select: none;"><path d=" M248.833,264.147 C245.06,260.606 240.463,258.225 235.624,256.861 C234.99599999999998,256.612 234.35399999999998,256.389 233.7,256.191 C233.7,256.191 233.958,252.541 233.958,252.541 C234.73899999999998,252.182 235.499,251.784 236.22299999999998,251.33 C240.786,248.47899999999998 244.128,243.83 245.237,238.319 C245.303,238.325 245.36499999999998,238.346 245.432,238.349 C248.20499999999998,238.497 250.577,236.367 250.72699999999998,233.592 C250.85,231.25 249.34199999999998,229.212 247.20299999999997,228.539 C247.226,228.402 247.25699999999998,228.268 247.26299999999998,228.125 C247.30499999999998,227.163 246.93599999999998,226.281 246.31699999999998,225.637 C247.087,225.05 247.60899999999998,224.15 247.655,223.107 C247.696,222.14600000000002 247.32799999999997,221.265 246.71099999999998,220.622 C247.666,219.725 248.28799999999998,218.472 248.349,217.058 C248.451,214.727 246.993,212.709 244.90699999999998,211.957 C245.03699999999998,211.59 245.13299999999998,211.207 245.14999999999998,210.798 C245.248,208.571 243.51899999999998,206.689 241.295,206.59199999999998 C240.78199999999998,206.57 240.291,206.654 239.833,206.809 C239.839,206.744 239.85799999999998,206.68200000000002 239.861,206.61599999999999 C239.94199999999998,204.749 238.495,203.171 236.625,203.09199999999998 C235.81099999999998,203.055 235.06199999999998,203.323 234.458,203.778 C233.92399999999998,201.586 232.017,199.911 229.648,199.80599999999998 C227.99699999999999,199.735 226.509,200.45600000000002 225.505,201.61599999999999 C224.93099999999998,200.721 223.95,200.107 222.807,200.05700000000002 C221.307,199.99200000000002 220.00699999999998,200.923 219.50699999999998,202.258 C218.87199999999999,201.94 218.167,201.74099999999999 217.41199999999998,201.708 C214.618,201.586 212.26299999999998,203.695 212.01899999999998,206.454 C211.915,206.44 211.814,206.414 211.707,206.409 C209.83599999999998,206.328 208.262,207.773 208.17899999999997,209.643 C208.16199999999998,210.035 208.226,210.41 208.334,210.766 C206.93099999999998,211.129 205.862,212.357 205.798,213.879 C205.744,215.114 206.36599999999999,216.212 207.32799999999997,216.845 C206.628,218.713 206.194,220.71699999999998 206.083,222.816 C206.083,222.816 205.97799999999998,225.216 205.97799999999998,225.216 C205.77599999999998,225.306 205.582,225.406 205.403,225.527 C204.325,226.024 203.10199999999998,225.446 202.582,226.96 C202.036,228.54500000000002 203.589,228.511 203.885,230.456 C204.11499999999998,231.962 204.66899999999998,233.424 205.62199999999999,234.585 C205.70399999999998,241.869 209.70299999999997,248.293 215.708,251.724 C216.71499999999997,252.299 217.771,252.798 218.881,253.195 C218.881,253.195 218.517,256.062 218.517,256.062 C218.46699999999998,256.076 218.417,256.092 218.367,256.106 C212.37099999999998,257.233 206.54999999999998,259.83 201.951,264.147 C200.144,265.843 197.863,268.096 195.19,270.818 C195.142,270.866 195.099,270.91 195.04999999999998,270.96 C195.04,270.97 195.03099999999998,270.979 195.01999999999998,270.99 C194.97199999999998,271.039 194.92899999999997,271.082 194.88,271.132 C198.265,273.467 201.93599999999998,275.413 205.82799999999997,276.919 C206.523,277.188 207.226,277.441 207.935,277.681 C213.27499999999998,279.49 218.98999999999998,280.485 224.94199999999998,280.485 C224.999,280.485 225.05499999999998,280.481 225.111,280.481 C225.124,280.481 225.136,280.48 225.148,280.48 C225.20499999999998,280.48 225.261,280.476 225.31699999999998,280.476 C225.88799999999998,280.471 226.45499999999998,280.454 227.021,280.433 C227.48499999999999,280.415 227.94799999999998,280.39 228.409,280.36 C231.588,280.155 234.69199999999998,279.672 237.694,278.931 C238.16,278.816 238.62099999999998,278.69 239.082,278.563 C240.279,278.23199999999997 241.45999999999998,277.865 242.62099999999998,277.454 C244.035,276.954 245.41799999999998,276.392 246.774,275.778 C249.863,274.379 252.79299999999998,272.695 255.53199999999998,270.756 C252.887,268.062 250.625,265.829 248.833,264.147z" style="fill: rgb(242, 71, 0); fill-opacity: 0.5;"></path></g></g></g></g></g></svg>